<?xml version="1.0" encoding="UTF-8"?>
<!DOCTYPE svg PUBLIC "-//W3C//DTD SVG 1.1//EN" "http://www.w3.org/Graphics/SVG/1.1/DTD/svg11.dtd">
<!-- Creator: CorelDRAW X7 -->
<svg xmlns="http://www.w3.org/2000/svg" xml:space="preserve" width="4.79409in" height="3.875in" version="1.1" style="shape-rendering:geometricPrecision; text-rendering:geometricPrecision; image-rendering:optimizeQuality; fill-rule:evenodd; clip-rule:evenodd"
viewBox="0 0 1078 871"
 xmlns:xlink="http://www.w3.org/1999/xlink">
 <defs>
  <style type="text/css">
   <![CDATA[
    .fil2 {fill:#9D9E9E}
    .fil0 {fill:#0033AB}
    .fil1 {fill:#009EC7}
   ]]>
  </style>
 </defs>
 <g id="Layer_x0020_1">
  <metadata id="CorelCorpID_0Corel-Layer"/>
  <g id="_2254264434704">
   <polygon class="fil0" points="992,871 846,871 746,656 375,656 375,542 694,542 591,320 664,162 "/>
   <path class="fil1" d="M191 871l146 0 327 -709 -73 -159 -400 868zm546 -868l2 -3 -3 0 1 3z"/>
  </g>
  <polygon class="fil2" points="831,116 1078,363 831,610 750,610 996,363 750,116 "/>
  <polygon class="fil2" points="247,283 0,529 247,776 328,776 81,529 328,283 "/>
 </g>
</svg>
